<svg xmlns="http://www.w3.org/2000/svg" viewBox="0 0 64 64">
  <!-- Tub body - wood brown -->
  <rect x="8" y="32" width="48" height="24" rx="4" ry="4" fill="#8B5A2B"/>
  <!-- Tub slats -->
  <rect x="14" y="34" width="3" height="20" rx="1" fill="#6B4423"/>
  <rect x="22" y="34" width="3" height="20" rx="1" fill="#6B4423"/>
  <rect x="30" y="34" width="3" height="20" rx="1" fill="#6B4423"/>
  <rect x="38" y="34" width="3" height="20" rx="1" fill="#6B4423"/>
  <rect x="46" y="34" width="3" height="20" rx="1" fill="#6B4423"/>
  <!-- Water -->
  <ellipse cx="32" cy="34" rx="22" ry="6" fill="#4AC1E0"/>
  <!-- Bubbles -->
  <circle cx="22" cy="33" r="2.5" fill="#fff" opacity="0.9"/>
  <circle cx="32" cy="32" r="3" fill="#fff" opacity="0.9"/>
  <circle cx="42" cy="34" r="2" fill="#fff" opacity="0.9"/>
  <circle cx="27" cy="35" r="1.5" fill="#fff" opacity="0.7"/>
  <circle cx="38" cy="33" r="2" fill="#fff" opacity="0.8"/>
  <!-- Steam lines - light gray -->
  <path d="M20 26 Q22 22 20 18 Q18 14 20 10" stroke="#888" stroke-width="2.5" fill="none" stroke-linecap="round"/>
  <path d="M32 26 Q34 22 32 18 Q30 14 32 10" stroke="#888" stroke-width="2.5" fill="none" stroke-linecap="round"/>
  <path d="M44 26 Q46 22 44 18 Q42 14 44 10" stroke="#888" stroke-width="2.5" fill="none" stroke-linecap="round"/>
</svg>
